HIERARCHY
ROOT Hips
{
 OFFSET 0.000000 0.000000 0.000000
 CHANNELS 6 Xposition Yposition Zposition Yrotation Xrotation Zrotation
 JOINT Chest
 {
  OFFSET 0.000000 9.585900 0.002600
  CHANNELS 3 Yrotation Xrotation Zrotation
  JOINT Chest2
  {
   OFFSET 0.000000 9.601200 -0.005300
   CHANNELS 3 Yrotation Xrotation Zrotation
   JOINT Chest3
   {
    OFFSET 0.000000 9.561800 0.000000
    CHANNELS 3 Yrotation Xrotation Zrotation
    JOINT Chest4
    {
     OFFSET 0.000000 9.552100 0.000000
     CHANNELS 3 Yrotation Xrotation Zrotation
     JOINT Neck
     {
      OFFSET 0.000000 14.453000 0.000000
      CHANNELS 3 Yrotation Xrotation Zrotation
      JOINT Head
      {
       OFFSET 0.000000 8.936500 -0.011300
       CHANNELS 3 Yrotation Xrotation Zrotation
       End Site
       {
        OFFSET 0.000000 17.073600 -0.006000
       }
      }
     }
     JOINT RightCollar
     {
      OFFSET -2.921100 9.558500 0.000000
      CHANNELS 3 Yrotation Xrotation Zrotation
      JOINT RightShoulder
      {
       OFFSET -13.519700 0.000000 0.000000
       CHANNELS 3 Yrotation Xrotation Zrotation
       JOINT RightElbow
       {
        OFFSET 0.000000 -29.696600 0.000000
        CHANNELS 3 Yrotation Xrotation Zrotation
        JOINT RightWrist
        {
         OFFSET 0.000000 -24.004700 0.000000
         CHANNELS 3 Yrotation Xrotation Zrotation
         End Site
         {
          OFFSET 0.000000 -17.728500 0.000000
         }
        }
       }
      }
     }
     JOINT LeftCollar
     {
      OFFSET 2.921100 9.558500 0.000000
      CHANNELS 3 Yrotation Xrotation Zrotation
      JOINT LeftShoulder
      {
       OFFSET 13.519700 0.000000 0.000000
       CHANNELS 3 Yrotation Xrotation Zrotation
       JOINT LeftElbow
       {
        OFFSET 0.000000 -29.696600 0.000000
        CHANNELS 3 Yrotation Xrotation Zrotation
        JOINT LeftWrist
        {
         OFFSET 0.000000 -24.004700 0.000000
         CHANNELS 3 Yrotation Xrotation Zrotation
         End Site
         {
          OFFSET 0.000000 -17.728500 0.000000
         }
        }
       }
      }
     }
    }
   }
  }
 }
 JOINT RightHip
 {
  OFFSET -7.771700 -0.012900 -0.001300
  CHANNELS 3 Yrotation Xrotation Zrotation
  JOINT RightKnee
  {
   OFFSET 0.000000 -40.869800 0.001200
   CHANNELS 3 Yrotation Xrotation Zrotation
   JOINT RightAnkle
   {
    OFFSET 0.000000 -39.717900 0.002100
    CHANNELS 3 Yrotation Xrotation Zrotation
    JOINT RightToe
    {
     OFFSET 0.000000 -4.965400 11.033500
     CHANNELS 3 Yrotation Xrotation Zrotation
     End Site
     {
      OFFSET 0.000000 -1.423100 5.872300
     }
    }
   }
  }
 }
 JOINT LeftHip
 {
  OFFSET 7.771700 -0.012900 -0.001300
  CHANNELS 3 Yrotation Xrotation Zrotation
  JOINT LeftKnee
  {
   OFFSET 0.000000 -40.869800 0.001200
   CHANNELS 3 Yrotation Xrotation Zrotation
   JOINT LeftAnkle
   {
    OFFSET 0.000000 -39.717900 0.002100
    CHANNELS 3 Yrotation Xrotation Zrotation
    JOINT LeftToe
    {
     OFFSET 0.000000 -4.965400 11.033500
     CHANNELS 3 Yrotation Xrotation Zrotation
     End Site
     {
      OFFSET 0.000000 -1.423100 5.872300
     }
    }
   }
  }
 }
}
MOTION
Frames: 7
Frame Time: 0.008333
-43.492456 61.994219 13.160824 177.384983 -51.522323 0.009483 4.647100 28.437655 2.554496 0.595936 5.200844 0.407916 1.136339 8.158195 0.648127 3.339042 22.811814 2.330695 8.593166 14.391145 3.383790 14.843991 -8.992934 3.085609 8.488399 2.494302 6.650214 15.857276 -26.041905 -22.806849 -88.277329 -39.881042 139.586775 6.016898 5.132602 30.629479 -9.684486 1.023208 -0.019296 0.557353 -4.943830 16.998889 95.517727 -59.635391 -138.888301 1.826842 5.580540 -41.271826 2.931552 -15.552796 -7.543562 -0.590370 61.718231 -4.628988 1.676317 -8.652622 10.391940 0.213728 -0.446179 0.107632 -3.485275 -12.624982 1.111400 26.352723 76.557524 26.879046 0.414573 -11.904180 -3.807948 0.216059 0.637456 0.105959
-43.493918 61.994831 13.166300 177.396125 -51.550465 -0.001907 4.550031 28.477710 2.529836 0.589245 5.191596 0.396262 1.161951 8.179496 0.646945 3.221127 22.817009 2.313913 8.711990 14.438321 3.455054 15.037339 -8.905992 3.179059 8.671733 2.524864 6.587988 15.892192 -26.090172 -22.819321 -88.810093 -40.025123 139.951717 6.128777 5.281848 30.317100 -9.498544 1.069311 -0.072462 0.469588 -4.901041 16.980918 95.325418 -59.565832 -138.880198 1.702285 5.602234 -41.492447 2.926970 -15.520044 -7.536789 -0.583756 61.707193 -4.623956 1.679212 -8.652406 10.379668 0.204121 -0.441698 0.118739 -3.482441 -12.597673 1.115948 26.310817 76.553158 26.843964 0.403690 -11.902499 -3.812925 0.225507 0.642005 0.112866
-43.496429 61.995837 13.172349 177.407813 -51.580692 -0.012248 4.462513 28.496856 2.495850 0.586726 5.196631 0.394063 1.061112 8.181593 0.645344 3.236853 22.834540 2.280039 8.823547 14.468071 3.471017 15.204500 -8.808921 3.361423 8.864217 2.625347 6.552501 15.944620 -26.210088 -22.835887 -89.191569 -40.133539 140.178511 6.240029 5.427167 30.044183 -9.330656 1.154093 -0.104979 0.364334 -4.874030 16.941489 95.035362 -59.447663 -138.795210 1.604831 5.636946 -41.642668 2.927598 -15.485582 -7.530400 -0.597513 61.697424 -4.634202 1.673681 -8.647886 10.373909 0.204849 -0.439984 0.125137 -3.485511 -12.568534 1.115566 26.289338 76.546447 26.825267 0.399020 -11.898971 -3.818683 0.229370 0.645816 0.118618
-43.503688 61.995879 13.179947 177.423642 -51.602200 -0.003325 4.365507 28.513464 2.438979 0.600810 5.193489 0.389836 1.022579 8.186732 0.642834 3.258074 22.845162 2.264460 8.869993 14.497652 3.517608 15.365225 -8.712045 3.547398 8.955407 2.685929 6.539766 15.987330 -26.287446 -22.829053 -89.434390 -40.184198 140.334463 6.303174 5.557533 29.808993 -9.248854 1.227593 -0.107132 0.255921 -4.823242 16.885734 94.667668 -59.290579 -138.642584 1.531868 5.699358 -41.728045 2.931913 -15.457641 -7.549263 -0.590743 61.685108 -4.630197 1.656543 -8.647829 10.376694 0.208683 -0.432949 0.125011 -3.477791 -12.549484 1.094399 26.261043 76.528245 26.790231 0.399560 -11.885208 -3.803356 0.216077 0.651115 0.118655
-43.506176 61.996020 13.188696 177.417872 -51.622594 -0.012039 4.298029 28.507389 2.415951 0.632974 5.215998 0.390424 1.013552 8.193761 0.641312 3.251313 22.839383 2.254708 8.951723 14.582782 3.709821 15.494722 -8.637341 3.594298 9.034496 2.779247 6.546338 16.018212 -26.373889 -22.848900 -89.554724 -40.179909 140.440471 6.329033 5.663093 29.591658 -9.186790 1.304492 -0.102305 0.142165 -4.762012 16.813221 94.278800 -59.115008 -138.464158 1.456887 5.779174 -41.765372 2.943214 -15.430153 -7.523893 -0.595703 61.661974 -4.646253 1.650223 -8.637115 10.391556 0.203192 -0.431215 0.119253 -3.455790 -12.533113 1.100607 26.243846 76.525227 26.790193 0.407222 -11.879179 -3.803246 0.208341 0.650003 0.116661
-43.509893 61.997011 13.197686 177.417761 -51.646984 -0.023494 4.277262 28.539309 2.418960 0.641580 5.209960 0.388890 0.994314 8.225524 0.644810 3.167949 22.872622 2.248888 9.086507 14.610819 3.795137 15.601970 -8.599009 3.692182 9.160487 2.801362 6.511341 16.059364 -26.440907 -22.873071 -89.585343 -40.147359 140.497637 6.342333 5.745938 29.381149 -9.072986 1.270941 -0.132278 0.033184 -4.656711 16.740598 94.000250 -58.948002 -138.345454 1.362023 5.863781 -41.803854 2.952482 -15.399940 -7.507289 -0.604183 61.642452 -4.652852 1.645313 -8.623800 10.393137 0.198434 -0.433167 0.118019 -3.450326 -12.512275 1.108997 26.227712 76.522527 26.777483 0.408864 -11.872549 -3.800837 0.206908 0.648348 0.114397
-43.516414 61.998694 13.206857 177.432886 -51.673510 -0.035176 4.270208 28.592251 2.420713 0.624123 5.191708 0.391153 1.012547 8.286540 0.646374 3.165667 22.900637 2.253869 9.142425 14.608989 3.874299 15.676971 -8.607147 3.819171 9.168131 2.761073 6.506435 16.109944 -26.480863 -22.892454 -89.555570 -40.099923 140.518273 6.348054 5.816802 29.176892 -9.058226 1.263038 -0.105288 -0.079511 -4.603689 16.645458 93.934212 -58.830791 -138.342827 1.269801 5.962455 -41.890007 2.963284 -15.363547 -7.506605 -0.623775 61.621883 -4.661822 1.640804 -8.615007 10.394075 0.216362 -0.433384 0.114354 -3.456661 -12.487971 1.108220 26.219383 76.510294 26.759441 0.407377 -11.863700 -3.789918 0.201842 0.650374 0.109909
